# xmcd
#
# Track frame offsets:
#	150
#	16682
#	33795
#	52367
#	55727
#	77452
#	100237
#	118947
#	126742
#	145242
#	161710
#	180312
#	195707
#
# Disc length: 2671 seconds
#
# Revision: 1
# Processed by: cddbd v1.5.2PL0 Copyright (c) Steve Scherf et al.
# Submitted via: EZCDAudioConverter 7.1.0.1
#
DISCID=b00a6d0d
DTITLE=F.I.R. - 无限
DYEAR=2005
DGENRE=
TTITLE0=无限
TTITLE1=千年之恋
TTITLE2=LOVE*3
TTITLE3=盛宴···
TTITLE4=应许之地
TTITLE5=把爱放开
TTITLE6=Neverland
TTITLE7=The Legend 传说···
TTITLE8=刺鸟
TTITLE9=爱的力量
TTITLE10=死心的理由
TTITLE11=I can't go on
TTITLE12=What's next?
EXTD=
EXTT0=
EXTT1=
EXTT2=
EXTT3=
EXTT4=
EXTT5=
EXTT6=
EXTT7=
EXTT8=
EXTT9=
EXTT10=
EXTT11=
EXTT12=
PLAYORDER=
